<?xml version="1.0" standalone="no"?>
<!DOCTYPE svg PUBLIC "-//W3C//DTD SVG 20010904//EN"
 "http://www.w3.org/TR/2001/REC-SVG-20010904/DTD/svg10.dtd">
<svg version="1.0" xmlns="http://www.w3.org/2000/svg"
 width="2094.000000pt" height="2094.000000pt" viewBox="0 0 2094.000000 2094.000000"
 preserveAspectRatio="xMidYMid meet">
<metadata>
Created by potrace 1.11, written by Peter Selinger 2001-2013
</metadata>
<g transform="translate(0.000000,2094.000000) scale(0.100000,-0.100000)"
fill="#000000" stroke="none">
<path d="M10273 20933 c15 -2 39 -2 55 0 15 2 2 4 -28 4 -30 0 -43 -2 -27 -4z"/>
<path d="M10618 20933 c18 -2 45 -2 60 0 15 2 0 4 -33 4 -33 0 -45 -2 -27 -4z"/>
<path d="M10353 20239 c-25 -12 -73 -55 -115 -102 -103 -117 -112 -125 -170
-169 -117 -87 -253 -131 -408 -131 -195 -1 -323 53 -510 214 -80 68 -128 90
-194 90 -84 0 -149 -38 -202 -121 -140 -215 -209 -288 -336 -355 -189 -100
-450 -100 -631 -2 -34 19 -98 55 -142 80 -44 26 -98 49 -121 53 -100 15 -189
-47 -243 -168 -90 -202 -113 -241 -201 -328 -98 -97 -185 -148 -314 -180 -154
-39 -302 -23 -483 52 -131 53 -200 60 -269 25 -29 -15 -61 -41 -77 -64 -23
-34 -64 -154 -82 -243 -13 -65 -92 -214 -145 -273 -89 -99 -220 -180 -343
-213 -108 -29 -211 -28 -352 2 -154 34 -224 36 -280 7 -88 -46 -112 -96 -131
-271 -16 -153 -25 -192 -62 -277 -63 -144 -178 -266 -317 -335 -133 -66 -173
-73 -407 -74 l-206 -1 -43 -30 c-26 -18 -53 -50 -68 -80 -24 -46 -26 -56 -21
-165 10 -251 -1 -326 -72 -470 -60 -120 -179 -239 -298 -298 -101 -49 -133
-57 -309 -77 -191 -22 -247 -53 -286 -157 -20 -53 -19 -68 19 -257 30 -156 31
-178 11 -297 -24 -136 -86 -255 -183 -354 -115 -115 -185 -152 -405 -211 -134
-36 -181 -66 -216 -137 -34 -68 -28 -122 28 -270 61 -157 76 -236 68 -356 -11
-158 -73 -305 -178 -420 -75 -82 -141 -125 -293 -193 -139 -62 -196 -110 -216
-184 -21 -76 -5 -125 87 -278 91 -150 119 -257 110 -420 -14 -251 -122 -424
-355 -570 -164 -103 -196 -143 -196 -246 0 -74 10 -93 113 -221 142 -174 194
-303 194 -484 0 -227 -80 -387 -277 -559 -119 -104 -146 -147 -146 -231 0 -83
28 -129 141 -228 202 -177 282 -336 282 -562 0 -203 -61 -339 -245 -549 -52
-60 -75 -139 -59 -201 22 -80 47 -108 180 -195 170 -111 239 -182 304 -311 67
-132 86 -327 48 -476 -22 -84 -42 -127 -125 -267 -64 -109 -75 -157 -52 -228
23 -71 64 -109 164 -154 206 -95 235 -112 313 -189 134 -132 199 -277 206
-460 6 -127 -8 -197 -72 -357 -54 -134 -57 -184 -20 -260 39 -78 91 -106 270
-148 39 -9 112 -37 164 -62 79 -38 109 -59 176 -127 67 -67 90 -98 128 -176
50 -102 77 -211 77 -307 0 -32 -14 -123 -30 -203 -35 -171 -36 -181 -9 -240
46 -103 94 -127 286 -146 109 -11 164 -22 225 -44 205 -75 354 -231 426 -448
25 -73 26 -86 24 -274 -2 -184 -1 -201 19 -243 26 -54 71 -91 134 -110 36 -11
73 -12 169 -5 246 17 418 -34 566 -167 148 -135 215 -277 235 -503 15 -179 46
-243 138 -286 66 -30 101 -30 234 3 151 37 303 37 418 0 155 -51 287 -151 374
-283 48 -74 75 -145 121 -321 26 -96 57 -142 121 -177 72 -40 123 -35 277 23
158 61 236 76 362 68 156 -10 298 -70 412 -176 88 -81 128 -142 197 -299 65
-146 107 -193 190 -211 72 -15 125 0 241 70 169 101 259 129 415 129 102 0
166 -12 253 -46 144 -57 250 -151 346 -305 100 -159 150 -199 251 -199 75 0
106 15 211 101 109 91 155 121 230 152 217 90 470 62 663 -74 42 -29 106 -90
157 -148 101 -117 154 -151 235 -151 79 0 124 27 218 132 108 121 178 179 267
223 105 51 182 68 304 68 188 0 306 -47 492 -198 126 -101 149 -111 242 -103
81 7 123 42 212 181 114 176 210 261 363 323 90 36 163 47 291 41 98 -4 127
-9 195 -36 45 -17 103 -45 130 -62 121 -77 174 -99 236 -99 120 0 165 41 249
229 80 179 149 267 272 350 118 79 213 106 378 106 146 0 145 0 328 -71 144
-56 194 -58 271 -11 68 40 90 82 130 239 33 129 68 209 129 290 140 187 372
294 597 274 39 -3 121 -18 183 -32 132 -30 177 -28 245 16 76 48 96 95 113
261 14 144 26 197 63 282 55 128 179 258 309 325 135 71 210 82 479 73 99 -3
116 -1 157 19 55 26 92 72 111 135 11 35 12 73 5 169 -8 113 -4 189 15 286 4
19 27 77 52 129 37 78 58 107 126 175 141 140 249 187 476 210 159 16 212 35
260 92 31 38 51 94 51 142 0 17 -12 79 -27 139 -30 121 -36 291 -14 373 58
215 200 387 386 469 28 12 107 38 177 56 149 40 195 67 232 134 40 75 36 126
-23 279 -55 141 -71 213 -71 311 0 95 14 169 49 255 69 173 180 287 366 376
66 31 135 63 152 70 53 20 109 89 122 149 16 74 1 123 -79 256 -84 143 -110
220 -117 350 -6 118 6 210 40 294 63 155 145 249 318 362 135 89 173 129 187
196 20 92 -2 145 -110 274 -142 168 -190 290 -191 479 0 227 80 389 277 561
121 105 139 134 144 220 5 89 -17 128 -130 227 -211 186 -290 341 -290 572 -1
186 47 309 186 480 103 126 118 155 118 230 0 99 -30 137 -192 242 -164 107
-239 187 -301 324 -48 106 -62 183 -56 319 5 127 20 184 71 280 26 49 34 64
88 155 61 103 55 203 -16 277 -31 33 -70 56 -163 98 -145 64 -190 92 -261 159
-167 157 -244 400 -201 631 6 33 33 115 60 182 59 148 63 199 23 274 -38 69
-80 93 -234 135 -78 21 -167 53 -211 76 -161 83 -278 225 -340 414 -34 102
-32 269 4 417 32 130 33 158 6 217 -46 101 -94 127 -275 146 -156 16 -208 28
-284 62 -208 96 -358 289 -395 508 -12 72 -14 118 -7 220 14 193 -13 265 -115
315 -44 22 -58 23 -163 19 -253 -10 -328 2 -470 72 -66 33 -103 61 -165 123
-138 138 -186 247 -209 472 -15 149 -24 180 -63 232 -29 38 -113 81 -160 81
-17 0 -83 -11 -146 -25 -168 -36 -236 -40 -342 -20 -186 35 -343 138 -452 295
-43 63 -77 148 -108 270 -39 152 -68 201 -145 240 -54 28 -124 26 -207 -6
-193 -73 -238 -86 -333 -91 -126 -7 -237 15 -349 69 -67 33 -102 59 -171 127
-88 88 -140 172 -201 326 -45 115 -151 188 -246 170 -38 -7 -119 -44 -163 -75
-57 -41 -190 -99 -257 -114 -149 -33 -330 -13 -455 50 -137 68 -210 139 -313
299 -69 109 -98 140 -150 167 -48 25 -125 27 -175 6 -19 -9 -84 -55 -145 -103
-175 -140 -300 -189 -480 -188 -222 1 -382 81 -555 277 -71 80 -103 109 -140
125 -63 27 -133 27 -187 0z m593 -919 c1589 -88 3104 -591 4409 -1463 659
-440 1267 -975 1776 -1562 194 -224 430 -525 564 -720 27 -38 67 -97 91 -131
111 -161 317 -499 431 -709 449 -827 756 -1692 927 -2610 102 -552 146 -1035
146 -1615 0 -1218 -221 -2306 -705 -3470 -129 -310 -469 -966 -586 -1132 -11
-14 -19 -29 -19 -32 0 -4 -8 -19 -19 -34 -10 -15 -78 -117 -151 -227 -931
-1406 -2307 -2552 -3861 -3216 -118 -50 -243 -102 -279 -116 -860 -325 -1588
-490 -2540 -575 -198 -18 -1122 -18 -1320 0 -896 80 -1603 233 -2380 515
-1466 533 -2804 1489 -3805 2717 -867 1064 -1473 2312 -1769 3647 -299 1345
-278 2755 60 4098 309 1225 886 2376 1693 3375 444 550 1017 1102 1581 1521
1398 1040 3045 1640 4775 1738 207 12 777 12 981 1z"/>
<path d="M10043 18859 c-1387 -75 -2684 -468 -3853 -1167 -173 -103 -414 -260
-556 -363 -171 -123 -208 -150 -314 -233 -537 -420 -1052 -939 -1471 -1481
-590 -763 -1055 -1649 -1347 -2565 -211 -661 -340 -1364 -382 -2084 -13 -229
-13 -698 0 -919 48 -779 190 -1516 428 -2217 52 -152 83 -236 162 -440 123
-321 373 -821 588 -1180 520 -866 1208 -1647 2002 -2271 937 -737 2011 -1262
3165 -1547 1020 -252 2056 -307 3135 -166 979 127 1985 457 2868 941 1385 758
2539 1900 3299 3263 551 987 896 2068 1012 3170 39 369 46 502 46 910 0 407
-7 545 -46 910 -91 867 -334 1754 -698 2550 -261 570 -597 1132 -959 1600 -40
52 -94 122 -119 155 -134 173 -447 521 -652 725 -689 682 -1521 1259 -2391
1657 -362 166 -824 340 -1125 423 -491 137 -784 199 -1210 260 -490 69 -1100
96 -1582 69z m29 -1550 c16 -41 49 -132 74 -204 92 -261 130 -370 244 -689
l82 -228 -26 -104 c-29 -116 -29 -117 -17 -110 5 3 12 18 15 33 4 16 45 129
91 253 46 124 99 268 118 320 172 471 256 697 280 750 l21 45 4 -36 c1 -19
-15 -125 -38 -235 -23 -109 -47 -230 -55 -269 -8 -38 -38 -182 -69 -320 -30
-137 -70 -325 -90 -417 -20 -92 -59 -258 -87 -368 -28 -111 -49 -204 -46 -206
2 -2 17 29 32 68 l29 73 13 -45 c8 -25 30 -103 49 -175 22 -81 46 -149 66
-180 17 -27 38 -62 47 -77 9 -16 19 -28 22 -28 12 0 201 204 212 228 9 19 6
27 -22 56 -21 22 -34 47 -38 72 -5 37 -1 44 74 130 267 307 672 744 691 744
22 0 138 -86 159 -119 25 -37 30 -90 11 -124 -6 -12 -68 -83 -138 -157 -189
-201 -402 -440 -518 -580 -190 -229 -227 -270 -284 -321 -32 -28 -58 -55 -58
-60 0 -5 25 -42 55 -83 61 -83 72 -89 230 -125 167 -39 255 -102 317 -229 65
-132 44 -317 -47 -409 l-42 -43 -77 0 c-91 0 -203 33 -272 81 -69 47 -107 60
-158 53 -42 -6 -46 -5 -55 20 -13 33 -5 55 25 66 44 17 54 47 43 124 -7 54 -6
90 6 158 8 48 15 104 15 125 0 67 -94 218 -123 198 -59 -40 -247 -189 -247
-194 0 -4 14 -20 30 -36 17 -16 30 -36 30 -45 0 -15 -53 -80 -66 -80 -3 0 -33
14 -65 32 l-58 32 -20 -25 c-43 -51 -71 -118 -82 -193 -6 -42 -15 -76 -20 -76
-21 0 -31 47 -26 122 5 72 20 118 74 218 1 3 -21 21 -50 40 -29 19 -86 60
-127 92 -41 31 -78 54 -82 51 -13 -7 -69 -122 -89 -182 -11 -30 -19 -70 -20
-90 -1 -33 -2 -34 -10 -11 -6 17 -7 6 -3 -35 3 -36 17 -86 35 -126 17 -37 31
-77 31 -90 1 -64 -12 -113 -46 -172 -64 -115 -141 -161 -298 -178 -57 -6 -112
-17 -123 -24 -11 -8 -55 -47 -97 -88 -94 -89 -166 -130 -283 -158 -97 -23
-135 -17 -135 20 0 28 29 41 93 41 100 0 203 56 274 148 49 65 51 98 13 209
-40 118 -39 189 3 276 57 115 137 172 294 207 90 20 126 40 176 103 35 43 132
206 126 211 -13 9 -105 82 -109 86 -3 3 -54 49 -115 101 -213 187 -418 415
-724 809 -91 118 -151 204 -151 217 0 15 17 35 53 61 28 22 72 56 97 76 25 20
53 36 62 36 10 0 36 -26 59 -57 249 -342 489 -631 834 -1003 53 -58 101 -106
105 -108 11 -4 98 262 143 438 l34 128 -38 149 c-20 81 -44 182 -53 223 -9 41
-36 165 -61 275 -155 682 -212 1006 -174 993 8 -3 26 -38 41 -79z m-2 -2844
c37 -83 41 -104 25 -141 -16 -39 -29 -47 -15 -8 16 41 12 72 -20 144 -17 38
-33 84 -35 102 -5 30 -4 30 9 -7 7 -22 24 -62 36 -90z m2782 -2273 c-5 -85 13
-126 66 -150 34 -16 120 -17 975 -17 672 0 937 -3 937 -11 0 -6 -10 -19 -21
-30 -32 -29 -382 -396 -477 -501 -128 -140 -307 -358 -377 -459 -203 -289
-342 -590 -401 -871 -28 -136 -34 -272 -24 -583 3 -104 0 -148 -12 -192 -25
-89 -81 -180 -149 -242 -101 -91 -194 -126 -333 -126 -275 1 -455 197 -456
496 0 247 144 490 504 849 105 105 229 224 276 265 47 41 178 156 290 254 113
99 243 214 290 256 47 42 102 92 123 110 20 17 37 38 37 45 0 10 -136 11 -662
8 -369 -2 -685 -9 -712 -14 -86 -17 -143 -76 -200 -209 -33 -76 -37 -82 -53
-72 -12 8 -11 15 110 432 165 567 237 820 237 825 0 3 8 5 18 5 16 0 17 -8 14
-68z m-3139 -147 c187 -33 377 -114 478 -204 33 -30 69 -75 89 -113 29 -53 35
-76 38 -146 3 -50 -1 -100 -8 -128 -18 -64 -86 -136 -168 -176 -64 -32 -72
-33 -182 -33 -114 0 -118 1 -191 37 -90 45 -156 109 -200 198 -29 57 -33 76
-37 165 -4 91 -2 106 23 170 34 87 33 121 -4 159 -25 25 -39 29 -100 34 -150
10 -255 -72 -315 -251 -48 -143 -106 -559 -106 -764 0 -75 10 -91 31 -50 45
84 129 143 254 179 112 32 320 32 449 0 423 -105 660 -430 617 -849 -29 -283
-177 -503 -450 -667 -320 -193 -788 -218 -1108 -61 -331 163 -547 467 -625
881 -32 172 -32 473 1 624 75 351 282 655 566 835 117 75 288 137 455 164 95
15 396 13 493 -4z m-2151 -1177 c3 -1102 4 -1165 22 -1211 32 -84 87 -110 259
-122 94 -7 97 -8 97 -31 l0 -24 -820 0 -820 0 0 25 c0 23 4 25 48 25 26 0 88
6 139 14 169 25 201 67 214 276 11 168 10 1690 0 1857 -8 116 -12 137 -37 183
-37 69 -75 87 -206 100 -57 6 -126 13 -154 16 -48 5 -51 7 -46 30 l4 24 649 0
648 0 3 -1162z m4318 80 c0 -605 5 -1126 10 -1180 17 -178 54 -212 250 -230
116 -11 120 -13 120 -35 l0 -23 -820 0 -820 0 0 24 c0 22 4 23 96 30 235 16
283 52 305 227 6 54 9 433 7 1049 l-3 965 -25 60 c-38 91 -75 112 -220 125
-207 20 -200 18 -200 46 l0 24 650 0 650 0 0 -1082z m-6670 -65 l0 -98 -25 43
c-60 106 -107 142 -182 142 l-54 0 3 -230 3 -230 -97 0 -98 0 20 20 c19 19 20
33 20 204 0 102 -4 196 -9 210 -7 18 -19 26 -43 29 -18 2 78 5 215 5 l247 2 0
-97z m225 85 c-26 -15 -35 -28 -35 -54 0 -31 36 -58 138 -99 99 -41 134 -71
150 -129 18 -63 -5 -120 -63 -156 -43 -26 -61 -26 -35 2 45 49 18 84 -110 138
-55 23 -114 55 -130 70 -27 25 -30 34 -30 88 0 46 5 66 22 87 24 31 76 65 98
65 11 -1 9 -4 -5 -12z m225 -70 l-1 -83 -20 40 c-11 22 -34 55 -52 74 l-32 34
31 -18 c37 -21 64 -14 64 15 0 11 2 20 5 20 3 0 5 -37 5 -82z m580 -18 c0 -55
-2 -100 -4 -100 -2 0 -16 25 -32 55 -39 78 -90 135 -120 135 l-24 0 0 -212 c0
-117 4 -218 8 -224 4 -6 14 -14 22 -17 8 -3 -39 -5 -105 -5 -66 0 -113 2 -105
5 8 3 18 11 22 17 4 6 8 107 8 224 l0 212 -24 0 c-30 0 -76 -52 -116 -130 -17
-33 -32 -60 -35 -60 -3 0 -5 45 -5 100 l0 100 255 0 255 0 0 -100z m8477 81
c51 -24 76 -60 76 -112 0 -70 -46 -110 -183 -164 l-61 -24 39 45 c88 99 77
248 -19 265 -24 5 -14 7 36 7 49 1 82 -4 112 -17z m336 -8 c-15 -22 -19 -54
-22 -173 -4 -173 9 -257 42 -270 31 -12 9 -12 -36 1 -156 43 -211 291 -90 405
38 36 84 64 106 64 17 0 17 -1 0 -27z m152 -5 c119 -81 142 -258 47 -368 -37
-44 -69 -64 -120 -75 l-33 -7 25 25 c20 20 25 38 31 113 11 123 0 290 -20 320
-14 22 -14 24 4 24 10 0 40 -15 66 -32z m385 -185 c0 -120 4 -223 8 -229 4 -6
14 -14 22 -17 8 -3 -39 -5 -105 -5 -66 0 -113 2 -105 5 8 3 18 11 22 17 4 6 8
99 8 207 0 213 -3 225 -55 232 -16 2 23 5 88 6 l117 1 0 -217z m306 202 c-24
-24 -28 -67 -24 -254 3 -168 4 -173 27 -192 l23 -19 -33 6 c-122 22 -207 183
-165 311 27 82 110 162 169 163 17 0 17 -2 3 -15z m111 4 c70 -26 143 -139
143 -222 0 -114 -81 -223 -179 -241 l-33 -6 22 18 c53 43 50 420 -3 454 -18
12 17 10 50 -3z m-1525 -21 c-23 -23 -14 -57 16 -64 39 -10 52 -23 52 -52 0
-58 -63 -81 -115 -40 -24 18 -27 26 -22 61 4 26 16 51 38 73 18 19 35 34 38
34 3 0 0 -5 -7 -12z m-9415 -110 c-3 -8 -6 -5 -6 6 -1 11 2 17 5 13 3 -3 4
-12 1 -19z m-7 -95 l0 -78 -17 33 c-9 18 -26 35 -40 38 l-24 6 29 19 c17 9 33
27 37 38 11 37 15 23 15 -56z m331 -167 l41 -47 -36 21 c-45 28 -69 23 -77
-15 -4 -17 -7 20 -7 80 l-1 110 20 -51 c11 -29 38 -73 60 -98z m-171 29 l0
-95 -117 2 c-65 1 -95 3 -66 5 48 4 55 8 98 56 26 28 54 68 62 89 8 21 17 38
19 38 2 0 4 -43 4 -95z m9573 -8 l-17 -87 -192 0 -192 0 68 66 69 66 115 -1
c109 -2 117 -1 138 21 13 13 24 24 25 23 2 -1 -5 -40 -14 -88z m-9726 41 c-3
-8 -6 -5 -6 6 -1 11 2 17 5 13 3 -3 4 -12 1 -19z m460 -134 c-3 -3 -12 -4 -19
-1 -8 3 -5 6 6 6 11 1 17 -2 13 -5z m5569 -2586 c4 -4 2 -34 -5 -65 -35 -178
-186 -337 -465 -489 -171 -94 -220 -157 -219 -285 l1 -77 -58 24 c-64 26 -256
67 -387 83 -45 6 -154 13 -243 17 -133 6 -158 9 -149 21 26 31 132 84 244 122
194 66 232 105 260 272 9 51 25 124 36 160 18 63 21 67 57 77 20 5 107 30 193
55 234 68 423 97 616 94 61 -1 115 -5 119 -9z m115 -44 c46 -23 114 -89 147
-142 55 -87 67 -142 67 -302 0 -143 0 -146 -32 -210 -71 -144 -137 -193 -295
-220 -60 -11 -117 -25 -125 -32 -18 -15 -14 -124 12 -358 17 -151 14 -197 -22
-355 -32 -139 -33 -238 -3 -365 13 -52 24 -123 24 -157 1 -83 -13 -97 -96 -98
-34 0 -63 -6 -65 -11 -2 -6 12 -23 31 -37 42 -33 77 -104 106 -216 30 -117 36
-201 17 -226 -21 -27 -92 -26 -142 3 -46 28 -55 28 -55 -3 0 -20 -5 -25 -26
-25 l-27 0 6 -114 c4 -95 10 -125 32 -174 51 -113 131 -163 278 -170 77 -4 97
-1 161 22 151 55 272 208 344 436 45 142 56 237 49 434 -9 239 -44 399 -177
797 -99 296 -110 340 -110 452 0 141 43 242 142 333 62 57 121 78 205 72 41
-3 84 -13 108 -26 93 -48 166 -154 206 -297 27 -100 30 -292 6 -530 -8 -88
-15 -204 -15 -258 0 -94 1 -97 26 -113 53 -31 67 -62 71 -158 l3 -88 -30 6
c-34 8 -42 -7 -42 -81 0 -38 -3 -43 -22 -43 -22 0 -23 3 -20 65 l4 65 -45 0
c-44 0 -44 -1 -51 -37 -3 -21 -6 -50 -6 -65 0 -21 -5 -28 -20 -28 -18 0 -20 7
-20 70 0 69 0 70 -26 70 l-27 0 8 72 c8 88 23 119 72 149 50 30 53 35 53 101
0 31 4 58 9 60 14 5 51 370 51 498 0 143 -18 229 -69 335 -66 136 -164 207
-264 191 -56 -9 -110 -40 -156 -88 -127 -132 -133 -313 -20 -630 138 -386 219
-744 219 -963 0 -218 -82 -491 -199 -663 -132 -195 -352 -265 -575 -182 -140
53 -205 184 -206 413 0 52 -3 67 -15 67 -10 0 -16 16 -21 50 -4 28 -11 53 -15
56 -15 9 -10 24 9 24 15 1 15 2 -3 16 -17 13 -18 16 -5 24 13 9 13 11 0 20
-13 9 -13 11 0 20 13 8 12 11 -5 24 -18 14 -18 15 -2 16 22 0 22 19 0 27 -14
5 -13 8 6 15 24 9 20 28 -7 29 -12 0 -10 3 6 10 25 10 21 29 -6 30 -12 0 -10
3 6 10 24 9 22 29 -2 29 -9 0 -16 20 -20 59 -7 57 -8 60 -42 71 -19 6 -39 20
-44 30 -17 31 -11 114 15 222 14 57 25 124 25 150 0 42 -2 47 -30 57 -35 12
-36 19 -10 71 11 22 20 57 20 80 0 33 3 40 20 40 18 0 20 7 20 59 0 57 -1 59
-30 70 -34 11 -35 16 -15 51 8 14 14 48 15 77 0 37 5 55 16 61 15 8 15 15 2
73 l-14 64 -41 -3 c-38 -2 -42 0 -52 29 -15 45 -15 47 19 54 37 8 38 26 5 80
-42 69 -47 87 -43 172 3 71 7 86 33 123 18 25 55 57 92 79 34 20 111 65 171
99 233 137 359 284 385 451 12 76 10 76 88 35z m-1122 -141 c-6 -16 -24 -88
-40 -162 -16 -74 -35 -144 -44 -157 -31 -48 -91 -80 -230 -124 -93 -30 -177
-75 -226 -122 -39 -38 -40 -38 -120 -38 -53 0 -78 4 -74 10 29 47 22 339 -9
415 -13 31 -13 33 7 39 12 3 36 6 52 6 66 0 665 137 684 156 10 10 10 2 0 -23z
m-1179 -90 c21 -77 32 -241 27 -408 -5 -166 -11 -215 -27 -215 -22 0 -50 234
-50 429 0 109 16 231 31 231 4 0 13 -17 19 -37z m217 -38 c29 -3 77 -7 107
-11 l53 -5 17 -51 c38 -120 42 -301 7 -390 -9 -24 -16 -28 -49 -28 -55 0 -186
-35 -259 -69 l-61 -29 16 36 c14 31 17 71 15 253 -1 214 -14 320 -44 355 -5 7
25 -3 67 -21 43 -19 102 -37 131 -40z m-3347 -2760 c74 -59 154 -126 178 -148
71 -69 76 -136 14 -199 -40 -42 -113 -34 -174 20 -35 30 -17 -5 21 -42 49 -48
65 -85 57 -130 -12 -65 -73 -116 -139 -116 -35 0 -97 35 -177 99 -61 49 -223
182 -233 190 -4 4 6 6 22 3 27 -4 38 7 175 179 80 101 146 190 146 198 0 8
-12 28 -27 45 -34 37 -30 34 137 -99z m9475 55 c-28 -29 -28 -31 -13 -62 9
-18 77 -111 152 -207 75 -95 136 -176 136 -180 0 -4 -14 -17 -30 -30 l-30 -22
-173 42 c-94 22 -212 52 -262 65 -49 13 -104 24 -122 24 -17 0 -35 5 -38 10
-10 15 -68 12 -95 -6 -24 -15 -24 -15 1 8 15 12 65 53 111 90 l85 66 212 -53
c116 -29 211 -49 211 -44 0 5 -39 58 -86 119 -93 119 -116 134 -162 105 -40
-26 -16 -3 58 54 75 58 86 63 45 21z m-314 -422 c19 -24 26 -37 16 -29 -20 16
-61 71 -54 71 3 0 20 -19 38 -42z m-8600 -51 l26 -22 -43 -175 c-24 -96 -53
-215 -64 -265 l-20 -90 21 -29 c26 -34 29 -36 -131 72 -139 93 -150 102 -101
77 42 -21 53 -12 76 69 15 55 15 59 -2 79 -17 20 -17 21 0 8 9 -8 19 -12 21
-10 7 9 47 181 43 186 -3 2 -39 -21 -81 -52 l-76 -57 28 -21 c15 -11 32 -25
37 -30 14 -13 -13 1 -47 26 l-26 20 -45 -37 c-66 -54 -71 -74 -29 -113 32 -31
20 -25 -68 36 -68 46 -105 77 -58 48 57 -36 69 -29 333 177 88 68 165 124 170
125 6 0 22 -10 36 -22z m8748 -135 c35 -45 72 -84 83 -88 11 -3 33 3 53 15 19
11 35 19 35 17 0 -2 -37 -32 -82 -66 -46 -35 -71 -50 -55 -34 15 17 27 37 27
46 0 9 -26 50 -58 90 -31 40 -72 93 -91 118 -51 69 9 1 88 -98z m-312 91 c94
-44 160 -162 149 -262 -13 -108 -78 -201 -178 -252 -66 -34 -178 -38 -246 -9
-95 41 -161 140 -162 241 0 98 44 185 123 241 l32 23 -22 -29 c-13 -16 -23
-41 -23 -57 0 -100 212 -399 283 -399 32 0 73 33 81 65 13 52 -62 203 -166
332 -49 60 -76 78 -128 86 l-25 3 30 13 c79 35 185 36 252 4z m-8019 -220 c51
-28 60 -37 49 -47 -16 -13 -117 -190 -117 -206 0 -5 14 -17 31 -26 51 -26 96
3 142 93 25 48 22 90 -10 120 l-28 26 53 -28 c78 -42 130 -91 143 -134 16 -54
-15 -126 -65 -146 -46 -20 -72 -19 -123 5 -24 10 -43 16 -43 13 0 -3 18 -26
41 -50 l41 -45 -2 -86 c-3 -111 -3 -112 17 -112 9 0 24 6 33 13 9 6 6 2 -7
-10 -39 -37 -85 -39 -149 -8 -42 21 -60 36 -70 61 -20 47 -18 64 17 167 l32
91 -29 23 c-27 22 -30 22 -42 5 -30 -39 -102 -181 -102 -200 0 -11 12 -30 28
-42 20 -16 16 -15 -18 5 -25 14 -87 48 -137 76 -88 48 -115 67 -75 55 31 -10
52 20 220 324 13 25 28 50 32 55 21 28 20 54 -2 75 -25 24 -19 22 140 -67z
m7204 -135 c-7 -7 -12 -19 -12 -27 0 -11 209 -417 226 -439 6 -9 48 12 80 40
42 37 65 108 73 230 l6 87 58 -112 c55 -105 58 -112 40 -124 -10 -8 -103 -59
-208 -115 -104 -55 -210 -112 -235 -126 l-45 -24 33 27 c26 21 32 33 28 51 -8
29 -196 377 -219 404 -12 15 -25 19 -40 15 -12 -3 23 19 78 49 55 30 107 59
115 65 21 14 36 13 22 -1z m-6712 -130 c30 -14 79 -36 108 -48 37 -16 50 -26
43 -34 -6 -7 -57 -115 -114 -242 -103 -225 -104 -229 -83 -241 52 -30 -2 -8
-115 47 -68 32 -112 57 -98 54 15 -3 30 0 36 8 18 21 184 389 190 421 5 23 1
34 -18 49 -13 11 -19 18 -14 15 6 -2 35 -16 65 -29z m308 -144 c55 -32 77 -68
76 -120 -2 -90 -72 -134 -164 -101 -24 9 -47 13 -50 10 -3 -3 0 -7 5 -10 72
-27 135 -93 135 -142 -1 -44 -36 -108 -69 -125 -45 -24 -94 -20 -179 15 -90
36 -97 40 -49 32 30 -5 40 -1 63 23 39 42 64 102 64 157 0 43 -3 49 -32 67
l-32 19 35 -5 c30 -5 40 -2 59 17 58 62 77 162 38 200 l-23 21 40 -17 c22 -9
59 -27 83 -41z m6096 -160 l190 -196 40 5 41 5 -30 -13 c-16 -8 -68 -31 -115
-51 -47 -20 -103 -45 -124 -55 -51 -24 -55 -24 -22 2 14 11 26 24 26 29 0 5
-21 33 -47 63 l-48 54 -72 -33 -73 -33 2 47 c1 44 2 44 5 10 2 -21 6 -38 7
-38 16 0 117 53 114 60 -7 19 -121 130 -134 130 -10 0 -14 15 -14 58 0 31 -3
73 -6 93 -6 33 -4 37 22 47 16 6 34 11 39 11 6 1 95 -87 199 -195z m-5767 32
l110 -38 -38 -109 c-21 -61 -41 -115 -45 -120 -18 -29 67 -39 105 -13 12 9 32
30 43 48 11 17 18 26 16 21 -43 -135 -115 -310 -89 -217 10 35 -1 93 -22 110
-7 6 -23 13 -37 17 -24 5 -27 1 -67 -115 -38 -109 -40 -121 -25 -130 24 -15
-8 -6 -137 40 -86 31 -100 39 -76 42 36 4 38 8 106 199 93 264 94 270 52 294
-34 19 -34 19 104 -29z m5286 -145 c-1 -2 -14 10 -28 27 -14 17 -49 43 -78 57
l-52 26 38 -6 c50 -8 70 8 62 49 -3 17 10 -9 28 -59 18 -49 32 -92 30 -94z
m-175 112 c-10 -2 -26 -2 -35 0 -10 3 -2 5 17 5 19 0 27 -2 18 -5z m-85 -18
c-38 -16 -67 -57 -59 -83 15 -47 41 -56 176 -63 146 -8 196 -26 237 -88 27
-40 31 -116 9 -159 -16 -31 -61 -74 -93 -91 -37 -19 -38 -12 -2 12 45 30 51
76 15 112 -15 15 -37 25 -53 25 -81 0 -258 22 -283 35 -43 22 -74 95 -67 155
3 27 14 61 24 76 21 33 90 84 112 84 9 -1 2 -7 -16 -15z m-4752 -45 c62 -23
114 -42 116 -44 4 -4 -59 -180 -68 -191 -5 -5 -9 3 -9 21 0 38 -32 134 -60
179 -11 18 -39 42 -63 53 -64 31 -41 26 84 -18z m5256 -27 c-2 -16 -4 -5 -4
22 0 28 2 40 4 28 2 -13 2 -35 0 -50z m-4866 -89 c211 -53 265 -75 296 -123
27 -39 29 -68 9 -116 -23 -53 -69 -77 -138 -72 -32 3 -58 2 -58 -2 0 -4 20
-17 46 -29 50 -25 83 -80 84 -139 0 -48 17 -83 39 -83 11 0 23 9 26 21 4 11 9
19 11 16 10 -10 -10 -38 -42 -58 -67 -41 -172 -19 -208 43 -16 27 -18 45 -13
130 6 90 4 101 -14 119 -19 19 -19 19 3 14 50 -11 98 63 98 151 0 69 -17 93
-66 97 -28 2 -29 1 -56 -108 -15 -60 -26 -116 -23 -122 2 -7 0 -13 -5 -13 -12
0 -64 -226 -55 -241 4 -6 21 -18 39 -26 36 -17 39 -17 -149 30 -71 17 -120 33
-107 35 12 2 27 12 32 22 17 32 110 406 110 443 0 29 -5 37 -27 45 -53 20 -14
12 168 -34z m3619 -64 c-23 -23 -16 -52 26 -107 30 -40 39 -41 60 -8 14 22 15
32 5 65 -6 22 -21 46 -34 55 l-21 15 25 0 c54 0 92 -56 68 -103 -6 -12 -23
-32 -37 -45 l-27 -23 74 -71 c70 -67 75 -70 88 -52 19 27 37 90 30 108 -4 9
-17 16 -29 17 -13 0 9 9 47 20 82 22 102 24 60 5 -39 -17 -48 -28 -80 -109
-30 -77 -31 -76 48 -118 53 -28 96 -28 119 1 l18 22 0 -23 c0 -34 -39 -85 -85
-111 -54 -30 -136 -31 -187 -1 l-36 21 -32 -39 c-53 -66 -144 -99 -218 -80
-79 22 -134 119 -112 200 11 40 70 103 109 116 26 8 26 20 1 52 -48 62 -12
155 75 194 53 24 70 24 45 -1z m1284 -107 c5 -12 16 -14 44 -10 44 7 30 -2
-48 -33 -51 -20 -53 -20 -37 -2 12 13 17 38 18 88 l1 69 8 -49 c5 -26 11 -55
14 -63z m-3968 -38 c36 -25 70 -45 75 -45 4 0 13 8 19 18 8 13 9 0 5 -53 -7
-70 -24 -125 -25 -77 0 26 -33 98 -59 129 -68 82 -211 84 -211 4 0 -38 33 -68
140 -130 96 -56 132 -90 150 -146 37 -112 -54 -216 -185 -213 l-50 1 46 6 c57
8 79 25 79 61 0 49 -10 59 -107 117 -53 30 -115 74 -139 98 -41 39 -44 45 -44
96 0 59 18 104 52 128 51 37 86 50 135 51 45 0 60 -6 119 -45z m3467 -81 c20
-13 47 -29 59 -34 17 -6 10 -8 -32 -7 l-55 2 -6 -35 c-4 -19 -7 -32 -8 -29 0
4 -17 51 -36 105 -19 55 -35 103 -35 108 0 4 17 -13 39 -39 21 -25 55 -57 74
-71z m-1354 76 c41 -29 61 -69 61 -123 0 -92 -63 -138 -210 -151 -48 -4 -56
-3 -30 4 54 13 62 32 58 133 -5 110 -23 140 -89 146 l-44 5 50 7 c87 12 170 4
204 -21z m-246 -132 c20 -162 22 -182 32 -270 8 -77 26 -108 63 -109 15 -1
-20 -7 -78 -14 -167 -21 -207 -25 -184 -15 12 5 24 16 27 25 10 25 -43 447
-59 473 -8 12 -24 23 -37 23 -21 2 140 24 193 27 25 2 25 1 43 -140z m-3199
11 l-36 -105 -115 39 c-115 40 -140 53 -68 37 53 -12 120 18 195 87 30 28 56
50 58 49 1 -2 -14 -50 -34 -107z m1776 102 c47 -5 73 -9 58 -9 -15 -1 -31 -10
-37 -19 -5 -10 -12 -66 -16 -125 l-7 -108 58 -2 59 -2 -57 -3 -57 -4 -6 -42
c-3 -23 -5 -80 -3 -127 3 -80 4 -85 28 -91 14 -4 -29 -5 -95 -2 -149 6 -150 6
-131 35 9 15 18 78 25 188 16 241 15 297 -6 309 -22 12 56 13 187 2z m943 -39
c63 -27 120 -83 145 -141 24 -55 21 -157 -6 -213 -104 -213 -437 -225 -544
-19 -55 104 -30 255 53 325 45 38 127 76 164 76 l30 0 -25 -13 c-16 -8 -31
-30 -43 -62 -26 -73 -19 -316 11 -394 25 -63 34 -71 84 -71 74 0 104 88 95
280 -7 171 -28 228 -92 256 -29 13 -28 13 20 8 28 -4 76 -18 108 -32z m-554
17 c49 -1 52 -2 23 -9 -18 -4 -36 -10 -39 -13 -10 -11 -23 -177 -25 -335 l-3
-156 25 -14 c22 -12 16 -13 -60 -8 -47 3 -114 6 -150 7 -54 0 -61 2 -38 10 14
6 28 16 31 23 3 7 8 63 12 124 l8 112 -29 1 c-29 2 -29 2 -3 6 34 5 39 23 39
145 0 82 -3 99 -17 108 -14 9 5 10 76 6 52 -3 119 -6 150 -7z m2799 -86 c-16
-2 -40 -2 -55 0 -16 2 -3 4 27 4 30 0 43 -2 28 -4z m-3919 -229 c12 -27 39
-67 59 -89 l37 -39 -35 27 c-89 69 -100 70 -126 15 l-15 -33 5 30 c3 17 10 64
16 105 18 122 22 133 31 79 4 -26 17 -69 28 -95z"/>
<path d="M10070 17264 c0 -14 107 -345 212 -659 107 -318 128 -378 134 -372 4
4 -254 795 -313 961 -26 72 -33 87 -33 70z"/>
<path d="M10866 17128 c-45 -122 -289 -825 -318 -916 -28 -91 -17 -86 16 6
136 376 347 994 343 1005 -1 4 -20 -38 -41 -95z"/>
<path d="M10426 15864 c-14 -15 -26 -30 -26 -35 0 -4 -3 -14 -6 -23 -3 -9 -1
-16 5 -16 6 0 11 7 11 15 0 27 47 65 80 65 30 0 80 -37 80 -59 0 -6 -23 -13
-50 -17 -70 -9 -73 -24 -6 -24 33 0 56 -4 56 -11 0 -5 -15 -23 -32 -40 -40
-35 -22 -39 20 -4 50 42 51 106 2 155 -31 31 -100 28 -134 -6z"/>
<path d="M10521 15353 c-1 -6 -22 -21 -47 -33 -54 -27 -146 -109 -191 -172
l-32 -45 124 -123 123 -123 133 119 c74 64 134 121 134 125 0 4 -21 33 -46 65
-36 47 -63 68 -128 102 -66 36 -80 47 -71 58 7 7 10 19 7 26 -4 9 -6 9 -6 1z"/>
<path d="M11232 14790 c86 -23 142 -56 200 -118 59 -63 84 -112 100 -198 11
-61 13 -65 16 -31 8 90 -60 218 -153 289 -51 39 -156 79 -204 77 -15 0 1 -8
41 -19z"/>
<path d="M11133 14730 c-43 -14 -107 -90 -123 -145 -54 -192 143 -410 330
-365 215 51 218 350 5 479 -43 26 -68 34 -117 37 -35 2 -77 -1 -95 -6z"/>
<path d="M9675 14566 c-64 -29 -129 -102 -151 -168 -16 -49 -16 -145 0 -193 3
-11 0 -6 -8 10 -19 39 -20 131 -1 184 19 56 1 43 -21 -14 -39 -102 11 -249
101 -297 11 -6 1 10 -22 35 -54 58 -57 73 -4 20 73 -76 178 -93 272 -44 64 33
98 68 130 136 33 69 39 158 14 218 -50 120 -187 171 -310 113z"/>
<path d="M10981 14504 c-1 -61 3 -80 30 -132 39 -78 113 -147 182 -167 71 -21
105 -17 37 4 -30 10 -68 25 -85 33 -78 41 -144 155 -155 268 l-7 65 -2 -71z"/>
<path d="M9215 11025 c-44 -15 -115 -87 -145 -145 -29 -58 -39 -144 -46 -405
-12 -436 30 -773 112 -898 60 -91 227 -104 312 -24 30 28 66 98 80 157 6 25
16 169 23 320 12 274 4 537 -22 721 -30 218 -157 329 -314 274z"/>
<path d="M10609 7789 c-102 -11 -430 -78 -446 -91 -12 -9 -19 -48 -9 -48 2 0
91 10 198 22 136 16 255 22 405 22 l212 1 20 47 c11 25 17 49 13 52 -8 9 -303
5 -393 -5z"/>
<path d="M11114 7599 c3 -17 6 -38 6 -45 0 -11 23 -14 110 -14 l110 0 -6 28
c-4 15 -8 28 -9 30 -2 3 -191 32 -208 32 -5 0 -7 -14 -3 -31z"/>
<path d="M11130 7445 c0 -25 4 -45 10 -45 13 0 160 20 188 26 17 3 22 11 22
34 l0 30 -110 0 -110 0 0 -45z"/>
<path d="M11262 7370 c-128 -19 -122 -16 -122 -67 0 -32 4 -44 13 -40 6 2 54
15 105 28 l92 24 0 32 c0 36 2 36 -88 23z"/>
<path d="M10803 5516 c-26 -12 -30 -26 -8 -26 8 0 15 -4 15 -10 0 -5 -7 -10
-15 -10 -20 0 -19 -10 3 -26 16 -13 16 -13 0 -14 -22 0 -23 -16 -2 -28 14 -8
14 -10 -2 -16 -18 -7 -18 -8 0 -21 17 -13 17 -15 3 -21 -22 -8 -22 -24 1 -24
16 -1 16 -1 0 -14 -22 -16 -23 -26 -3 -26 8 0 15 -4 15 -10 0 -5 -7 -10 -15
-10 -8 0 -15 -4 -15 -10 0 -5 7 -10 15 -10 8 0 15 -6 15 -13 0 -28 110 -61
125 -38 8 14 -22 152 -50 235 -29 84 -50 107 -82 92z"/>
<path d="M8994 7519 c3 -17 6 -37 6 -43 0 -8 44 -11 146 -11 140 0 145 1 140
20 -3 11 -6 23 -6 28 0 4 -27 7 -59 7 -33 0 -95 7 -138 15 -101 19 -97 20 -89
-16z"/>
<path d="M5787 4747 c-66 -80 -107 -137 -107 -147 0 -6 -4 -10 -9 -10 -4 0
-45 -46 -91 -101 l-82 -102 29 -23 c57 -47 90 -44 147 13 40 41 59 72 70 115
5 22 0 35 -26 65 -27 31 -29 34 -8 20 13 -9 36 -17 50 -17 44 0 130 105 130
160 0 19 -44 70 -60 70 -4 0 -24 -20 -43 -43z"/>
<path d="M12067 3103 c-4 -3 -7 -23 -7 -44 0 -104 93 -192 185 -175 52 10 53
25 4 65 -24 20 -71 64 -105 99 -63 64 -66 67 -77 55z"/>
<path d="M12586 19701 c50 -23 113 -37 99 -23 -10 10 -115 43 -132 41 -4 0 10
-9 33 -18z"/>
<path d="M20933 10665 c0 -22 2 -30 4 -17 2 12 2 30 0 40 -3 9 -5 -1 -4 -23z"/>
<path d="M3 10640 c0 -30 2 -43 4 -27 2 15 2 39 0 55 -2 15 -4 2 -4 -28z"/>
<path d="M3 10295 c0 -33 2 -45 4 -27 2 18 2 45 0 60 -2 15 -4 0 -4 -33z"/>
<path d="M20933 10275 c0 -22 2 -30 4 -17 2 12 2 30 0 40 -3 9 -5 -1 -4 -23z"/>
<path d="M19615 7251 c-22 -11 -34 -20 -27 -20 16 -1 82 26 82 33 0 10 -13 6
-55 -13z"/>
<path d="M8290 1280 c0 -5 5 -10 11 -10 5 0 7 5 4 10 -3 6 -8 10 -11 10 -2 0
-4 -4 -4 -10z"/>
<path d="M8370 1245 c7 -9 15 -13 17 -11 7 7 -7 26 -19 26 -6 0 -6 -6 2 -15z"/>
<path d="M10258 3 c12 -2 30 -2 40 0 9 3 -1 5 -23 4 -22 0 -30 -2 -17 -4z"/>
<path d="M10648 3 c12 -2 30 -2 40 0 9 3 -1 5 -23 4 -22 0 -30 -2 -17 -4z"/>
</g>
</svg>
